<?xml version="1.0" encoding="UTF-8" standalone="no"?>
<!-- Uploaded to: SVG Repo, www.svgrepo.com, Generator: SVG Repo Mixer Tools -->

<svg
   height="800px"
   width="800px"
   version="1.1"
   id="_x32_"
   viewBox="0 0 512 512"
   xml:space="preserve"
   sodipodi:docname="logo.svg"
   inkscape:export-filename="logo.png"
   inkscape:export-xdpi="96"
   inkscape:export-ydpi="96"
   inkscape:version="1.2.2 (b0a8486541, 2022-12-01)"
   xmlns:inkscape="http://www.inkscape.org/namespaces/inkscape"
   xmlns:sodipodi="http://sodipodi.sourceforge.net/DTD/sodipodi-0.dtd"
   xmlns="http://www.w3.org/2000/svg"
   xmlns:svg="http://www.w3.org/2000/svg"><defs
   id="defs164190" /><sodipodi:namedview
   id="namedview164188"
   pagecolor="#ffffff"
   bordercolor="#000000"
   borderopacity="0.25"
   inkscape:showpageshadow="2"
   inkscape:pageopacity="0.0"
   inkscape:pagecheckerboard="0"
   inkscape:deskcolor="#d1d1d1"
   showgrid="false"
   inkscape:zoom="0.417193"
   inkscape:cx="-213.33052"
   inkscape:cy="373.92765"
   inkscape:window-width="1920"
   inkscape:window-height="1118"
   inkscape:window-x="0"
   inkscape:window-y="0"
   inkscape:window-maximized="1"
   inkscape:current-layer="_x32_" />
<style
   type="text/css"
   id="style164179">
	.st0{fill:#000000;}
</style>
<ellipse
   style="display:none;fill:#000000;stroke-width:5.40493;stroke-linejoin:bevel;stroke-opacity:0.466387"
   id="path167066"
   cx="252.74577"
   cy="274.44067"
   rx="272.27118"
   ry="283.11865" /><ellipse
   style="display:inline;fill:#ff7f2a;stroke-width:4.78691;stroke-linejoin:bevel;stroke-opacity:0.466387"
   id="path166951"
   cx="260.33899"
   cy="327.59323"
   rx="253.83052"
   ry="261.42374" /><g
   id="g164185"
   style="fill:#000000">
	<path
   style="fill:#ffffff;display:inline"
   d="m 257.132,497.662 c -0.381,0 -0.75,0.013 -1.132,0.013 -0.585,0 -1.138,-0.026 -1.717,-0.026 L 189.927,372.063 c 3.154,-1.614 6.269,-3.363 9.155,-5.366 3.618,-2.531 6.931,-5.366 9.563,-8.819 2.6,-3.414 4.596,-7.674 4.603,-12.551 0,-7.598 0,-17.097 0,-30.112 v -2.753 l -1.844,-2.041 c -9.766,-10.879 -22.991,-25.312 -27.575,-50.979 l -0.719,-4.101 -3.923,-1.399 c -2.492,-0.89 -4.393,-1.799 -6.046,-2.95 -2.455,-1.729 -4.68,-4.088 -7.268,-8.92 -2.562,-4.814 -5.277,-11.992 -8.246,-22.413 -1.297,-4.552 -1.767,-8.1 -1.767,-10.732 0.012,-3.052 0.591,-4.832 1.196,-5.964 0.902,-1.64 2.003,-2.34 3.408,-2.9 1.195,-0.458 2.435,-0.566 2.861,-0.578 l 3.802,0.477 c 1.106,6.002 4.743,22.387 12.634,30.277 -1.444,-12.932 2.352,-27.734 5.08,-36.286 24.739,6.835 51.736,9.188 75.045,9.188 22.775,0 47.012,-2.238 69.03,-8.711 2.721,8.616 6.345,23.112 4.934,35.809 8.056,-8.056 11.674,-24.936 12.697,-30.614 l 1.997,-0.146 c 0.356,-0.026 2.753,0.191 4.304,1.227 0.82,0.522 1.488,1.132 2.105,2.257 0.598,1.132 1.182,2.912 1.189,5.964 0,2.632 -0.464,6.173 -1.768,10.732 -3.949,13.912 -7.49,21.999 -10.739,26.488 -1.628,2.263 -3.115,3.688 -4.768,4.844 -1.66,1.151 -3.561,2.06 -6.053,2.95 l -3.917,1.399 -0.731,4.101 c -4.578,25.667 -17.803,40.1 -27.569,50.979 l -1.844,2.041 v 2.753 c 0,13.022 0,22.514 0,30.112 0,4.724 1.831,8.965 4.349,12.354 3.802,5.112 9.098,8.895 14.859,12.195 1.189,0.674 2.46,1.227 3.694,1.856 z"
   id="path188509" /><path
   fill="#000000"
   d="m 255.88841,125.01283 c -57.07655,0 -81.31795,44.51292 -81.31795,89.4214 0,22.45382 14.00194,38.61595 6.58759,75.77276 -83.677909,58.64531 252.82763,48.09117 150.01199,3.80226 18.1255,-42.61531 6.03632,-34.66697 6.03632,-79.57544 0,-44.90806 -24.24182,-89.42141 -81.31795,-89.42141 z m -0.0267,31.46364 c 0.32574,0.25383 0.59226,0.47382 0.9125,0.72764 19.64839,15.37477 19.64839,40.25454 0,55.63059 -0.31939,0.26059 -0.58591,0.48227 -0.91208,0.72678 -0.32575,-0.25297 -0.60496,-0.48227 -0.92563,-0.72763 -19.64838,-15.3752 -19.64838,-40.25497 0,-55.63059 0.32025,-0.26017 0.59904,-0.4738 0.92563,-0.72679 z m 0,17.22644 c -6.29662,0 -11.3956,5.09855 -11.3956,11.3956 0,6.29662 5.09898,11.3956 11.39602,11.3956 6.29662,0 11.3956,-5.09856 11.3956,-11.39518 0,-6.29704 -5.09898,-11.39602 -11.39602,-11.39602 z m -51.14925,28.21127 c 16.91677,-0.20433 30.66661,11.60838 33.39526,30.9086 0.0465,0.39555 0.099,0.75091 0.15823,1.16338 -0.39937,0.11083 -0.69508,0.29402 -1.08427,0.43573 -23.13979,9.32902 -44.68215,-3.09796 -48.17397,-27.80132 -0.071,-0.41163 -0.11255,-0.75133 -0.17176,-1.16339 0.40316,-0.11129 0.71072,-0.28639 1.09738,-0.43658 5.06175,-2.04077 10.04312,-3.05016 14.77997,-3.10685 z m 103.27658,0 c 4.73643,0.0571 9.71864,1.06608 14.78039,3.10684 0.38666,0.15019 0.69379,0.32575 1.09739,0.43574 -0.0592,0.4129 -0.10149,0.75303 -0.17219,1.16338 -3.49098,24.70379 -25.03334,37.13077 -48.17397,27.8026 -0.3892,-0.14256 -0.68448,-0.32575 -1.08384,-0.43658 0.0592,-0.41247 0.11129,-0.76783 0.15864,-1.16338 2.72781,-19.30022 16.47765,-31.11293 33.39358,-30.9086 z m -94.7357,6.333 c -3.85057,0.0854 -7.55857,2.13215 -9.62431,5.71112 -3.14915,5.45307 -1.27633,12.42487 4.17716,15.57234 5.45307,3.14873 12.42487,1.27591 15.57318,-4.17716 3.14831,-5.45306 1.27591,-12.42487 -4.17758,-15.5736 -1.8741,-1.08216 -3.93179,-1.57797 -5.94803,-1.53354 z m 86.19566,0 c -2.01708,-0.0457 -4.0752,0.45054 -5.94971,1.53312 -5.45307,3.14831 -7.32589,10.12012 -4.17759,15.57318 3.14916,5.45307 10.12053,7.32589 15.57403,4.17758 5.45306,-3.14831 7.32589,-10.12011 4.17758,-15.5736 -2.06658,-3.57897 -5.77458,-5.62483 -9.62431,-5.71112 z"
   id="path160943"
   style="display:none;fill:#550000;stroke-width:0.423047"
   sodipodi:nodetypes="csccsccccccccccsssssccccccccccccccccccccscccccccccc" /><path
   id="path164181"
   style="display:inline;fill:#000000"
   d="M 254.905 0.0025 C 193.79706 0.0025 178.41125 12.7125 178.41125 12.7125 C 170.41326 13.932499 164.678 21.040758 165.155 29.10875 L 171.3475 132.2825 C 171.3475 132.2825 153.39323 119.85225 137.72625 120.03625 C 122.01527 120.22025 108.59376 133.03852 117.79375 149.1375 C 126.42174 164.23148 140.23252 175.28826 156.5975 183.38125 L 156.5975 186.31875 C 155.0215 186.81475 153.355 187.464 151.575 188.545 C 148.943 190.173 146.2725 192.7165 144.4225 196.2075 C 142.5535 199.6915 141.5295 203.983 141.5425 208.93 C 141.5425 213.228 142.27325 218.04826 143.85625 223.59125 C 148.04025 238.16424 151.8175 247.57376 156.7125 254.47875 C 159.1545 257.90475 161.93175 260.6595 164.95875 262.7575 C 166.79575 264.0355 168.70375 265.014 170.62375 265.885 C 176.14274 291.43197 189.57151 307.55651 198.9175 317.9525 L 198.9175 345.33 C 198.9235 346.188 198.575 347.44125 197.24 349.22125 C 195.276 351.86725 191.1995 355.06525 186.3675 357.78625 C 181.5355 360.53225 175.98625 362.91075 171.12125 364.61375 C 165.42426 366.63575 156.23649 368.7465 145.9425 371.6975 C 130.47252 376.1675 112.19399 382.60751 97.31 395.3675 C 89.890007 401.74449 83.367245 409.75676 78.77625 419.71375 C 74.185255 429.67074 71.55325 441.49051 71.56625 455.3325 C 71.56625 458.5375 71.706 461.85475 71.985 465.28875 C 72.201 467.70475 73.117001 469.657 74.185 471.265 C 76.244998 474.279 78.954503 476.51125 82.3625 478.80625 C 88.314494 482.74825 96.565761 486.60075 107.13375 490.38375 C 138.75572 501.66174 191.12206 511.98 256 512 C 308.71495 511.994 353.20953 505.15249 384.9675 496.5625 C 400.85648 492.2575 413.54201 487.5395 422.71 482.8275 C 427.301 480.4555 431.0145 478.1105 433.9575 475.5425 C 435.4325 474.2445 436.723 472.8845 437.81 471.2625 C 438.885 469.6545 439.8 467.70225 440.01 465.28625 C 440.297 461.85225 440.43625 458.5455 440.43625 455.3475 C 440.46125 436.90352 435.72449 422.03899 427.9925 410.48 C 416.37651 393.07802 398.73248 383.45774 382.1575 377.21375 C 373.84051 374.07975 365.70899 371.778 358.55 369.82 C 351.40301 367.874 345.1855 366.2335 341.0075 364.6625 C 333.70851 361.9415 325.98249 358.4325 320.5975 354.6425 C 317.9015 352.7735 315.82975 350.8405 314.63375 349.1875 C 313.41275 347.5085 313.0825 346.33875 313.0825 345.32875 L 313.0825 317.95125 C 322.42849 307.55526 335.85576 291.43072 341.36875 265.88375 C 343.29475 265.01275 345.20325 264.03425 347.04125 262.75625 C 351.61325 259.60325 355.4905 255.01949 358.7775 248.7875 C 362.0895 242.53151 365.0145 234.53299 368.1425 223.59 C 369.7255 218.04601 370.45675 213.22575 370.46375 208.92875 C 370.46975 203.98175 369.4465 199.69025 367.5775 196.20625 C 364.7735 190.92226 360.22725 187.985 356.54625 186.65 C 356.13925 186.498 355.783 186.42075 355.395 186.29375 L 355.395 183.7125 C 370.45698 175.59351 383.27451 164.43448 392.0175 149.1375 C 401.21749 133.03852 387.79598 120.22125 372.085 120.03625 C 356.41902 119.85125 338.4625 132.2825 338.4625 132.2825 L 344.65625 29.10875 C 345.13325 21.040758 339.39799 13.932499 331.4 12.7125 C 331.4 12.7125 316.01294 0.0025 254.905 0.0025 z M 184.84125 193.9525 C 209.58023 200.78749 236.57727 203.14125 259.88625 203.14125 C 282.66123 203.14125 306.89827 200.90299 328.91625 194.43 C 331.63725 203.04599 335.261 217.54176 333.85 230.23875 C 341.90599 222.18276 345.5245 205.30299 346.5475 199.625 L 348.54375 199.47875 C 348.89975 199.45275 351.2965 199.67025 352.8475 200.70625 C 353.6675 201.22825 354.3355 201.8375 354.9525 202.9625 C 355.5505 204.0945 356.1355 205.8755 356.1425 208.9275 C 356.1425 211.5595 355.67775 215.09975 354.37375 219.65875 C 350.42475 233.57074 346.884 241.6585 343.635 246.1475 C 342.007 248.4105 340.5205 249.83525 338.8675 250.99125 C 337.2075 252.14225 335.30575 253.05125 332.81375 253.94125 L 328.8975 255.34 L 328.16625 259.44125 C 323.58825 285.10822 310.36349 299.54101 300.5975 310.42 L 298.7525 312.46125 L 298.7525 315.21375 L 298.7525 345.32625 C 298.7525 350.05025 300.5845 354.291 303.1025 357.68 C 306.9045 362.79199 312.20026 366.575 317.96125 369.875 C 319.15025 370.549 320.421 371.10225 321.655 371.73125 L 257.1325 497.6625 C 256.7515 497.6625 256.382 497.675 256 497.675 C 255.415 497.675 254.8615 497.64875 254.2825 497.64875 L 189.9275 372.0625 C 193.0815 370.4485 196.1965 368.7005 199.0825 366.6975 C 202.7005 364.1665 206.013 361.3305 208.645 357.8775 C 211.245 354.4635 213.2405 350.2045 213.2475 345.3275 L 213.2475 315.215 L 213.2475 312.4625 L 211.40375 310.42125 C 201.63776 299.54226 188.41275 285.10947 183.82875 259.4425 L 183.11 255.34125 L 179.1875 253.9425 C 176.6955 253.0525 174.79425 252.1435 173.14125 250.9925 C 170.68625 249.2635 168.4605 246.9045 165.8725 242.0725 C 163.3105 237.2585 160.5965 230.07974 157.6275 219.65875 C 156.3305 215.10675 155.86 211.5595 155.86 208.9275 C 155.872 205.8755 156.45125 204.0945 157.05625 202.9625 C 157.95825 201.3225 159.05875 200.6225 160.46375 200.0625 C 161.65875 199.6045 162.899 199.497 163.325 199.485 L 167.1275 199.9625 C 168.2335 205.96449 171.87026 222.34876 179.76125 230.23875 C 178.31725 217.30676 182.11325 202.50449 184.84125 193.9525 z " />
	<polygon
   class="st0"
   points="215.302,365.884 215.302,407.663 256.267,392.467 297.232,407.663 297.232,365.884 256.267,379.446     "
   id="polygon164183"
   style="fill:#000000" />
</g>
</svg>
