<?xml version="1.0" encoding="UTF-8" standalone="no"?>
<!-- Generator: visioncortex VTracer 0.6.4 -->

<svg
   version="1.1"
   width="800"
   height="800"
   id="svg559"
   sodipodi:docname="svg_output(7).svg"
   inkscape:version="1.2.2 (b0a8486541, 2022-12-01)"
   xmlns:inkscape="http://www.inkscape.org/namespaces/inkscape"
   xmlns:sodipodi="http://sodipodi.sourceforge.net/DTD/sodipodi-0.dtd"
   xmlns="http://www.w3.org/2000/svg"
   xmlns:svg="http://www.w3.org/2000/svg">
  <defs
     id="defs563" />
  <sodipodi:namedview
     id="namedview561"
     pagecolor="#ffffff"
     bordercolor="#000000"
     borderopacity="0.25"
     inkscape:showpageshadow="2"
     inkscape:pageopacity="0.0"
     inkscape:pagecheckerboard="0"
     inkscape:deskcolor="#d1d1d1"
     showgrid="false"
     inkscape:zoom="0.59"
     inkscape:cx="83.050848"
     inkscape:cy="376.27119"
     inkscape:window-width="1920"
     inkscape:window-height="1118"
     inkscape:window-x="0"
     inkscape:window-y="0"
     inkscape:window-maximized="1"
     inkscape:current-layer="svg559" />
  <ellipse
     style="fill:#ff6600;stroke-width:9.17922;stroke-linejoin:bevel;stroke-opacity:0.466387"
     id="path793"
     cx="406.7836"
     cy="646.53522"
     rx="428.81754"
     ry="416.17661" />
  <path
     d="M0,0 L12,0 L17,3 L23,10 L28,26 L30,41 L31,57 L32,100 L32,122 L22,135 L14,151 L10,166 L9,171 L9,197 L13,213 L18,225 L27,238 L39,250 L50,257 L58,261 L61,262 L70,262 L78,258 L82,253 L83,251 L83,239 L79,233 L73,228 L63,223 L55,215 L48,202 L46,193 L46,177 L50,164 L58,152 L65,145 L78,136 L89,131 L102,127 L113,125 L142,125 L161,129 L175,134 L189,142 L201,151 L213,162 L224,177 L234,196 L240,214 L244,230 L248,236 L256,241 L294,248 L302,250 L311,250 L319,247 L325,240 L331,217 L339,177 L344,141 L346,116 L349,41 L352,21 L356,11 L360,5 L366,0 L378,0 L386,4 L396,14 L406,29 L414,46 L423,73 L428,97 L430,111 L431,129 L431,147 L429,169 L424,195 L417,220 L407,246 L395,271 L391,279 L391,287 L401,303 L411,319 L426,348 L434,368 L443,397 L445,405 L444,414 L437,422 L428,428 L421,436 L419,441 L419,451 L431,487 L436,507 L439,527 L439,559 L436,574 L431,588 L424,600 L414,611 L402,619 L390,625 L384,632 L382,637 L382,644 L394,680 L401,706 L406,732 L409,755 L412,764 L415,769 L-37,769 L-33,764 L-31,761 L-25,724 L-19,698 L-12,674 L-5,654 L-2,645 L-2,637 L-6,629 L-13,623 L-29,615 L-40,605 L-47,595 L-53,582 L-57,569 L-59,553 L-59,527 L-55,503 L-47,475 L-39,451 L-39,443 L-45,431 L-56,422 L-63,416 L-65,412 L-65,405 L-57,377 L-48,353 L-37,330 L-29,316 L-17,297 L-12,289 L-11,286 L-11,279 L-15,270 L-23,256 L-31,237 L-41,207 L-46,186 L-50,161 L-51,145 L-51,121 L-48,94 L-43,72 L-37,53 L-29,34 L-19,17 L-10,7 L-2,1 Z M52,343 L38,347 L26,353 L14,364 L6,373 L1,382 L-1,390 L-1,397 L3,405 L9,410 L14,412 L22,412 L28,409 L34,402 L40,391 L47,385 L54,382 L67,382 L74,385 L79,390 L82,394 L86,406 L95,414 L99,415 L106,415 L114,411 L119,405 L120,402 L120,391 L115,376 L107,364 L100,357 L86,348 L72,344 L65,343 Z M314,343 L300,346 L290,350 L277,360 L269,369 L262,383 L259,393 L259,401 L264,409 L270,414 L280,415 L287,412 L293,407 L296,399 L299,392 L304,386 L312,382 L326,382 L334,385 L342,392 L349,405 L355,410 L357,411 L369,411 L375,408 L381,401 L381,386 L375,374 L366,363 L355,354 L347,349 L336,345 L326,343 Z M168,442 L146,444 L135,448 L131,453 L131,462 L137,470 L154,487 L162,494 L171,502 L171,516 L168,529 L162,539 L154,546 L143,550 L138,551 L126,551 L115,548 L107,544 L102,539 L98,534 L94,526 L90,515 L85,509 L78,506 L69,506 L63,510 L59,515 L56,523 L56,540 L59,564 L64,584 L71,603 L79,619 L89,635 L101,649 L114,662 L125,670 L142,679 L160,685 L180,688 L198,688 L220,685 L241,678 L252,672 L266,662 L282,646 L295,628 L305,610 L314,589 L321,563 L324,539 L324,524 L320,513 L313,507 L310,506 L300,506 L294,510 L289,516 L283,532 L277,540 L270,546 L259,550 L254,551 L242,551 L230,548 L221,542 L215,535 L211,526 L209,516 L209,503 L222,491 L246,467 L249,461 L249,454 L245,448 L235,444 L209,442 Z "
     fill="#FDB539"
     id="path543"
     transform="translate(210,31)"
     style="fill:#ffffff" />
  <path
     d="M0,0 L41,0 L67,2 L77,6 L81,12 L81,19 L76,27 L46,57 L41,61 L41,74 L44,87 L49,96 L58,104 L69,108 L74,109 L86,109 L100,105 L108,99 L114,92 L118,83 L122,72 L130,65 L132,64 L142,64 L149,68 L153,73 L156,82 L156,97 L153,121 L146,147 L136,170 L127,186 L113,205 L97,221 L87,228 L73,236 L52,243 L30,246 L12,246 L-8,243 L-26,237 L-45,227 L-58,216 L-71,203 L-81,190 L-89,177 L-97,161 L-104,142 L-109,122 L-112,98 L-112,81 L-108,71 L-101,65 L-99,64 L-90,64 L-83,67 L-77,75 L-72,88 L-67,96 L-62,101 L-56,105 L-47,108 L-42,109 L-30,109 L-18,106 L-9,100 L-3,93 L1,83 L3,74 L3,60 L-7,51 L-23,36 L-34,25 L-37,20 L-37,11 L-33,6 L-22,2 Z M6,154 L-13,158 L-29,164 L-46,173 L-56,180 L-54,184 L-40,198 L-25,208 L-9,215 L3,218 L10,219 L32,219 L52,215 L69,208 L84,198 L95,188 L100,182 L99,179 L77,166 L62,160 L43,155 L36,154 Z "
     fill="#030101"
     transform="translate(378,473)"
     id="path551" />
  <path
     d="M0,0 L30,0 L50,4 L67,10 L85,20 L94,26 L92,30 L83,40 L71,49 L59,56 L42,62 L26,65 L4,65 L-12,62 L-27,56 L-40,48 L-49,41 L-62,28 L-61,25 L-43,14 L-28,7 L-11,2 Z "
     fill="#E15912"
     transform="translate(384,627)"
     id="path553" />
  <path
     d="M0,0 L13,0 L28,3 L38,7 L50,16 L58,25 L64,35 L68,48 L68,59 L64,66 L59,70 L54,72 L47,72 L40,69 L33,61 L29,49 L25,44 L19,40 L15,39 L2,39 L-8,44 L-14,51 L-20,62 L-25,67 L-30,69 L-38,69 L-46,65 L-51,59 L-53,54 L-53,47 L-50,37 L-43,26 L-30,13 L-17,5 L-4,1 Z "
     fill="#040202"
     transform="translate(262,374)"
     id="path555" />
  <path
     d="M0,0 L12,0 L28,4 L38,9 L46,15 L55,23 L63,34 L67,43 L67,58 L60,66 L55,68 L43,68 L37,64 L33,59 L27,48 L20,42 L12,39 L-2,39 L-10,43 L-16,50 L-20,62 L-25,68 L-30,71 L-39,72 L-45,70 L-52,64 L-55,58 L-55,50 L-50,35 L-44,25 L-35,15 L-22,6 L-7,1 Z "
     fill="#040202"
     transform="translate(524,374)"
     id="path557" />
  <path
     id="path545"
     style="display:inline"
     d="M 135.42822,80.297608 C 123.44337,128.237 128.23828,222.91797 128.23828,222.91797 l 34.9857,73.31329 -40.9544,72.87832 c 0,0 -8.48026,94.37844 15.2305,105.46655 22.62581,10.58074 -41.013855,13.64915 -4.56287,162.75176 10.71363,43.82407 41.29054,30.83511 31.25615,55.39672 -6.27172,52.32243 -27.03499,98.61013 -14.66119,105.37653 C 179.63731,807.06344 180,792 180,792 l 4,-26 5,-25 6,-23 7,-22 7,-20 v -8 l -2,-5 -7,-8 -14,-7 -9,-6 -10,-11 -7,-13 -6,-18 -2,-16 v -26 l 2,-14 6,-25 12,-37 v -8 l -6,-12 -6,-5 -10,-8 -4,-6 v -7 l 8,-28 7,-19 7,-15 8,-16 9,-16 10,-15 5,-10 v -7 l -2,-6 -8,-13 -8,-18 -8,-22 -7,-25 -5,-26 -2,-24 v -24 l 2,-21 3,-16 7,-26 6,-15 8,-16 8,-13 7,-7 9,-6 h 12 l 3,1 7,8 4,12 3,19 1,16 1,43 v 22 l -7,9 -7,11 -5,12 -4,17 v 26 l 2,10 6,16 9,14 7,7 10,9 10,6 9,4 h 9 l 5,-2 5,-4 4,-6 v -12 l -1,-2 -7,-8 -13,-7 -7,-7 -6,-11 -3,-11 v -16 l 4,-13 5,-8 6,-7 10,-8 10,-6 13,-5 18,-4 h 29 l 11,2 17,5 14,7 15,10 10,9 9,11 8,12 9,19 6,21 3,10 4,5 8,5 22,4 24,5 h 9 l 8,-3 7,-8 5,-18 9,-45 5,-36 2,-25 3,-75 1,-8 3,-16 5,-10 7,-6 h 12 l 5,2 9,8 8,10 7,12 8,18 8,26 5,26 2,26 v 18 l -1,14 -4,25 -8,31 -10,27 -9,19 -8,16 v 8 l 7,11 12,19 13,25 8,18 6,17 8,28 -1,9 -4,5 -9,6 -8,8 -4,8 v 10 l 10,29 7,27 3,20 v 32 l -1,7 -4,15 -8,16 -8,10 -10,8 -14,7 -8,7 -4,8 v 7 l 12,36 6,22 5,24 4,29 2,7 5,7 h 23 l 4,-4 3,-6 v -14 l -1,-12 -6,-36 -8,-31 -2,-6 -2,-9 4,-2 11,-10 5,-5 7,-9 11,-17 5,-15 4,-16 3,-24 v -24 l -2,-20 -4,-22 -5,-19 -6,-17 h 3 l 4,-2 v -2 l 4,-1 2,-5 h 2 l 4,-6 5,-13 v -13 l -1,-12 -2,-10 -6,-21 -3,-9 -5,-14 -5,-12 -4,-8 -8,-16 h -2 v -2 l -6,-12 h -2 l -2,-6 -6,-8 v -6 h 2 l 5,-10 1,-6 h 2 l 1,-6 h 2 l 2,-5 5,-13 5,-16 6,-24 4,-28 1,-20 v -16 l -1,-20 -3,-24 -5,-23 -6,-19 -7,-18 h -2 l -1,-4 -7,-14 -4,-6 -6,-8 -4,-6 h -3 v -2 l -4,-4 -5,-2 V 8 L 616,6 605,0 h -47 l -5,3 -11,9 -1,4 h -2 l -1,4 h -2 v 3 h -2 l -3,7 -3,10 -4,20 -2,20 -1,24 -3,44 -6,44 -4,20 -1,13 h -2 l -1,5 -1,10 -15,-4 h -6 l -1,-9 -6,-21 -5,-10 -6,-12 h -2 v -2 l -9,-14 h -2 v -2 l -3,-4 h -2 v -2 l -5,-4 -5,-5 -4,-2 v -2 l -2,-1 -4,-4 -6,-2 v -2 l -8,-4 -6,-2 v -2 l -17,-6 -16,-5 -21,-3 h -24 l -8,1 -18,3 -22,8 -3,-48 -2,-21 -3,-17 -3,-9 L 263,20 253,8 248,6 V 4 L 240,0 C 187.61553,-3.1368909 146.93999,41.71979 135.42822,80.297608 Z"
     sodipodi:nodetypes="ccccssccccccccccccccccccccccccccccccccccccccccccccccccccccccccccccccccccccccccccccccccccccccccccccccccccccccccccccccccccccccccccccccccccccccccccccccccccccccccccccccccccccccccccccccccccccccccccccccccccccccccccccccccccccccccccccccccccccccccccccccccccccccccccccccccccccccccccccccccccccccccccccccccccccccccccccccccc" />
</svg>
