<?xml version="1.0" encoding="UTF-8" standalone="no"?>
<!-- Created with Inkscape (http://www.inkscape.org/) -->

<svg
   width="64mm"
   height="64mm"
   viewBox="0 0 64 64"
   version="1.1"
   id="svg180412"
   xml:space="preserve"
   inkscape:version="1.2.2 (b0a8486541, 2022-12-01)"
   sodipodi:docname="logo.svg"
   inkscape:export-filename="logo.png"
   inkscape:export-xdpi="96"
   inkscape:export-ydpi="96"
   xmlns:inkscape="http://www.inkscape.org/namespaces/inkscape"
   xmlns:sodipodi="http://sodipodi.sourceforge.net/DTD/sodipodi-0.dtd"
   xmlns="http://www.w3.org/2000/svg"
   xmlns:svg="http://www.w3.org/2000/svg"><sodipodi:namedview
     id="namedview180414"
     pagecolor="#ffffff"
     bordercolor="#000000"
     borderopacity="0.25"
     inkscape:showpageshadow="2"
     inkscape:pageopacity="0.0"
     inkscape:pagecheckerboard="0"
     inkscape:deskcolor="#d1d1d1"
     inkscape:document-units="mm"
     showgrid="false"
     inkscape:zoom="1.6819304"
     inkscape:cx="43.402509"
     inkscape:cy="85.615909"
     inkscape:window-width="1920"
     inkscape:window-height="1118"
     inkscape:window-x="0"
     inkscape:window-y="0"
     inkscape:window-maximized="1"
     inkscape:current-layer="svg180412" /><defs
     id="defs180409" /><g
     id="g183164"
     inkscape:label="Babylon"
     transform="matrix(0.53544197,0,0,0.53544197,-27.706849,-36.310977)"><path
       style="display:inline;opacity:1;fill:#483e37;fill-opacity:1;stroke-width:2.11667;stroke-linejoin:bevel;stroke-opacity:0.466387"
       d="m 97.599535,68.343231 c 9.308745,-0.26604 13.937485,-0.0191 21.434855,-0.02406 2.88296,0.335844 4.95757,2.156449 7.00451,7.331455 1.50951,6.222945 1.62965,7.025602 2.85406,13.142297 0.1424,2.365544 0.78856,0.878669 6.97996,2.391544 2.7835,0.384786 2.79046,5.291905 3.05895,7.563943 2.14954,11.31595 3.46942,20.43837 5.03337,29.67179 1.84398,0.22497 2.93977,0.33582 5.56172,0.83426 2.93776,0.70951 2.96634,2.03983 3.47608,4.08787 2.83813,12.96387 5.39503,31.61021 6.9163,42.17451 1.21573,1.07224 1.92058,1.68303 3.70563,3.13923 3.14203,2.87926 5.19558,4.58018 5.26561,6.02633 0.0462,1.03788 0.61112,2.13841 -0.31615,2.29485 -5.02758,0.0782 -105.277769,0.25001 -113.464968,0.10566 -1.066256,-1.60641 -0.176556,-3.42389 1.182516,-4.59204 2.407197,-2.41463 4.984909,-4.63795 7.343791,-7.01684 3.191203,-21.47339 6.659612,-41.76128 9.20605,-57.18802 0.713199,-1.96852 1.240033,-1.93017 2.658588,-1.76789 1.608196,0.19841 2.529353,0.27035 5.700768,0.75083 1.235399,-9.10161 2.872758,-19.509536 5.116788,-31.84087 0.771074,-1.818879 1.226098,-2.064916 2.753052,-1.863177 0.845301,0.01891 3.383715,0.477048 4.679345,0.648323 2.399555,-14.901621 1.76593,-15.889273 3.849175,-15.87 z"
       id="path180645"
       sodipodi:nodetypes="ccccccccccccccccccccccc"
       inkscape:label="bg" /><path
       style="opacity:1;fill:#999999;fill-opacity:1;stroke-width:2.11667;stroke-linejoin:bevel;stroke-opacity:0.466387"
       d="m 68.297974,175.41679 8.787525,-55.06107 71.857481,12.9032 6.56283,42.15787 -19.13233,0.11123 c 0,0 -0.18025,-19.25452 -0.44494,-27.58615 -0.86715,-5.73111 -11.48016,-12.78436 -17.13011,-1.22358 -0.31679,6.59323 -0.66741,29.0322 -0.66741,29.0322 l -13.44588,-0.21456 c 0,0 -0.17404,-20.92879 -0.12472,-29.59628 -0.36502,-6.22774 -11.465409,-13.18981 -17.463816,-1.11235 -0.148731,7.49823 -0.222469,30.92319 -0.222469,30.92319 z"
       id="path181017"
       sodipodi:nodetypes="ccccccccccccc" /><path
       style="opacity:1;fill:#cccccc;fill-opacity:1;stroke-width:2.11667;stroke-linejoin:bevel;stroke-opacity:0.466387"
       d="m 90.760595,87.717935 43.284875,7.452712 5.55381,32.304073 c 0,0 -13.24625,-2.12573 -20.02221,-3.5595 0.30127,-6.92546 -0.25143,-12.99795 0.11124,-18.13122 -1.19563,-4.54804 -9.891,-10.676197 -15.68406,-0.44494 -0.20858,4.64678 0.055,10.08371 -0.22247,16.24023 -6.34634,-1.11154 -18.353694,-3.67073 -18.353694,-3.67073 z"
       id="path181015"
       sodipodi:nodetypes="ccccccccc" /><path
       style="display:inline;opacity:1;fill:#ececec;fill-opacity:1;stroke-width:2.11667;stroke-linejoin:bevel;stroke-opacity:0.466387"
       d="m 99.743937,72.204678 c 5.707363,-0.06849 11.715243,0.195577 18.780353,0.274133 0.77755,0.108233 2.04598,0.459591 2.47858,1.797679 1.02892,3.337035 4.12926,15.254763 3.19595,15.141554 -3.61455,-0.439623 -17.25493,-2.730379 -26.080801,-4.242622 -0.349031,-0.271311 1.081002,-12.976643 1.625918,-12.970744 z"
       id="path181013"
       sodipodi:nodetypes="cccccc" /></g></svg>
