<?xml version="1.0" encoding="UTF-8" standalone="no"?>
<!-- Generator: visioncortex VTracer 0.6.4 -->

<svg
   version="1.1"
   width="800"
   height="800"
   id="svg559"
   sodipodi:docname="lama.svg"
   inkscape:version="1.2.2 (b0a8486541, 2022-12-01)"
   inkscape:export-filename="logo.png"
   inkscape:export-xdpi="96"
   inkscape:export-ydpi="96"
   xmlns:inkscape="http://www.inkscape.org/namespaces/inkscape"
   xmlns:sodipodi="http://sodipodi.sourceforge.net/DTD/sodipodi-0.dtd"
   xmlns="http://www.w3.org/2000/svg"
   xmlns:svg="http://www.w3.org/2000/svg">
  <defs
     id="defs563" />
  <sodipodi:namedview
     id="namedview561"
     pagecolor="#ffffff"
     bordercolor="#000000"
     borderopacity="0.25"
     inkscape:showpageshadow="2"
     inkscape:pageopacity="0.0"
     inkscape:pagecheckerboard="0"
     inkscape:deskcolor="#d1d1d1"
     showgrid="false"
     inkscape:zoom="0.834386"
     inkscape:cx="226.51387"
     inkscape:cy="373.92765"
     inkscape:window-width="1920"
     inkscape:window-height="1118"
     inkscape:window-x="0"
     inkscape:window-y="0"
     inkscape:window-maximized="1"
     inkscape:current-layer="svg559" />
  <ellipse
     style="fill:#ff6600;stroke-width:9.17922;stroke-linejoin:bevel;stroke-opacity:0.466387"
     id="path793"
     cx="406.7836"
     cy="646.53522"
     rx="428.81754"
     ry="416.17661" />
  <g
     id="g1249"
     transform="matrix(1.1889291,0,0,1.0888605,-72.456932,1.7087534)">
    <path
       d="m 0,0 h 12 l 5,3 6,7 5,16 2,15 1,16 1,43 v 22 l -10,13 -8,16 -4,15 -1,5 v 26 l 4,16 5,12 9,13 12,12 11,7 8,4 3,1 h 9 l 8,-4 4,-5 1,-2 v -12 l -4,-6 -6,-5 -10,-5 -8,-8 -7,-13 -2,-9 v -16 l 4,-13 8,-12 7,-7 13,-9 11,-5 13,-4 11,-2 h 29 l 19,4 14,5 14,8 12,9 12,11 11,15 10,19 6,18 4,16 4,6 8,5 38,7 8,2 h 9 l 8,-3 6,-7 6,-23 8,-40 5,-36 2,-25 3,-75 3,-20 4,-10 4,-6 6,-5 h 12 l 8,4 10,10 10,15 8,17 9,27 5,24 2,14 1,18 v 18 l -2,22 -5,26 -7,25 -10,26 -12,25 -4,8 v 8 l 10,16 10,16 15,29 8,20 9,29 2,8 -1,9 -7,8 -9,6 -7,8 -2,5 v 10 l 12,36 5,20 3,20 v 32 l -3,15 -5,14 -7,12 -10,11 -12,8 -12,6 -6,7 -2,5 v 7 l 12,36 7,26 5,26 3,23 3,9 3,5 H -37 l 4,-5 2,-3 6,-37 6,-26 7,-24 7,-20 3,-9 v -8 l -4,-8 -7,-6 -16,-8 -11,-10 -7,-10 -6,-13 -4,-13 -2,-16 v -26 l 4,-24 8,-28 8,-24 v -8 l -6,-12 -11,-9 -7,-6 -2,-4 v -7 l 8,-28 9,-24 11,-23 8,-14 12,-19 5,-8 1,-3 v -7 l -4,-9 -8,-14 -8,-19 -10,-30 -5,-21 -4,-25 -1,-16 v -24 l 3,-27 5,-22 6,-19 8,-19 10,-17 9,-10 8,-6 z m 52,343 -14,4 -12,6 -12,11 -8,9 -5,9 -2,8 v 7 l 4,8 6,5 5,2 h 8 l 6,-3 6,-7 6,-11 7,-6 7,-3 h 13 l 7,3 5,5 3,4 4,12 9,8 4,1 h 7 l 8,-4 5,-6 1,-3 v -11 l -5,-15 -8,-12 -7,-7 -14,-9 -14,-4 -7,-1 z m 262,0 -14,3 -10,4 -13,10 -8,9 -7,14 -3,10 v 8 l 5,8 6,5 10,1 7,-3 6,-5 3,-8 3,-7 5,-6 8,-4 h 14 l 8,3 8,7 7,13 6,5 2,1 h 12 l 6,-3 6,-7 v -15 l -6,-12 -9,-11 -11,-9 -8,-5 -11,-4 -10,-2 z m -146,99 -22,2 -11,4 -4,5 v 9 l 6,8 17,17 8,7 9,8 v 14 l -3,13 -6,10 -8,7 -11,4 -5,1 h -12 l -11,-3 -8,-4 -5,-5 -4,-5 -4,-8 -4,-11 -5,-6 -7,-3 h -9 l -6,4 -4,5 -3,8 v 17 l 3,24 5,20 7,19 8,16 10,16 12,14 13,13 11,8 17,9 18,6 20,3 h 18 l 22,-3 21,-7 11,-6 14,-10 16,-16 13,-18 10,-18 9,-21 7,-26 3,-24 v -15 l -4,-11 -7,-6 -3,-1 h -10 l -6,4 -5,6 -6,16 -6,8 -7,6 -11,4 -5,1 h -12 l -12,-3 -9,-6 -6,-7 -4,-9 -2,-10 v -13 l 13,-12 24,-24 3,-6 v -7 l -4,-6 -10,-4 -26,-2 z"
       fill="#FDB539"
       id="path543"
       transform="translate(210,31)"
       style="fill:#ffffff" />
    <path
       d="m 0,0 h 41 l 26,2 10,4 4,6 v 7 l -5,8 -30,30 -5,4 v 13 l 3,13 5,9 9,8 11,4 5,1 h 12 l 14,-4 8,-6 6,-7 4,-9 4,-11 8,-7 2,-1 h 10 l 7,4 4,5 3,9 v 15 l -3,24 -7,26 -10,23 -9,16 -14,19 -16,16 -10,7 -14,8 -21,7 -22,3 H 12 l -20,-3 -18,-6 -19,-10 -13,-11 -13,-13 -10,-13 -8,-13 -8,-16 -7,-19 -5,-20 -3,-24 V 81 l 4,-10 7,-6 2,-1 h 9 l 7,3 6,8 5,13 5,8 5,5 6,4 9,3 5,1 h 12 l 12,-3 9,-6 6,-7 4,-10 2,-9 V 60 L -7,51 -23,36 -34,25 -37,20 v -9 l 4,-5 11,-4 z m 6,154 -19,4 -16,6 -17,9 -10,7 2,4 14,14 15,10 16,7 12,3 7,1 h 22 l 20,-4 17,-7 15,-10 11,-10 5,-6 -1,-3 -22,-13 -15,-6 -19,-5 -7,-1 z"
       fill="#030101"
       transform="translate(378,473)"
       id="path551" />
    <path
       d="m 0,0 h 30 l 20,4 17,6 18,10 9,6 -2,4 -9,10 -12,9 -12,7 -17,6 -16,3 H 4 l -16,-3 -15,-6 -13,-8 -9,-7 -13,-13 1,-3 18,-11 15,-7 17,-5 z"
       fill="#e15912"
       transform="translate(384,627)"
       id="path553" />
    <path
       d="m 0,0 h 13 l 15,3 10,4 12,9 8,9 6,10 4,13 v 11 l -4,7 -5,4 -5,2 H 47 L 40,69 33,61 29,49 25,44 19,40 15,39 H 2 l -10,5 -6,7 -6,11 -5,5 -5,2 h -8 l -8,-4 -5,-6 -2,-5 v -7 l 3,-10 7,-11 13,-13 13,-8 13,-4 z"
       fill="#040202"
       transform="translate(262,374)"
       id="path555" />
    <path
       d="m 0,0 h 12 l 16,4 10,5 8,6 9,8 8,11 4,9 v 15 l -7,8 -5,2 H 43 L 37,64 33,59 27,48 20,42 12,39 H -2 l -8,4 -6,7 -4,12 -5,6 -5,3 -9,1 -6,-2 -7,-6 -3,-6 v -8 l 5,-15 6,-10 9,-10 13,-9 15,-5 z"
       fill="#040202"
       transform="translate(524,374)"
       id="path557" />
    <path
       id="path545"
       style="display:inline"
       sodipodi:type="inkscape:offset"
       inkscape:radius="0"
       inkscape:original="M 230.32031 -0.0390625 C 182.64593 2.4455974 146.22002 44.130171 135.42773 80.296875 C 123.44288 128.23627 128.23828 222.91797 128.23828 222.91797 L 163.22461 296.23047 L 122.26953 369.10938 C 122.26953 369.10938 113.78924 463.48806 137.5 474.57617 C 160.12581 485.15691 96.486515 488.22552 132.9375 637.32812 C 143.65113 681.1522 174.22775 668.163 164.19336 692.72461 C 157.92164 745.04704 137.15745 791.33516 149.53125 798.10156 C 179.63639 807.06386 180 792 180 792 L 184 766 L 189 741 L 195 718 L 202 696 L 209 676 L 209 668 L 207 663 L 200 655 L 186 648 L 177 642 L 167 631 L 160 618 L 154 600 L 152 584 L 152 558 L 154 544 L 160 519 L 172 482 L 172 474 L 166 462 L 160 457 L 150 449 L 146 443 L 146 436 L 154 408 L 161 389 L 168 374 L 176 358 L 185 342 L 195 327 L 200 317 L 200 310 L 198 304 L 190 291 L 182 273 L 174 251 L 167 226 L 162 200 L 160 176 L 160 152 L 162 131 L 165 115 L 172 89 L 178 74 L 186 58 L 194 45 L 201 38 L 210 32 L 222 32 L 225 33 L 232 41 L 236 53 L 239 72 L 240 88 L 241 131 L 241 153 L 234 162 L 227 173 L 222 185 L 218 202 L 218 228 L 220 238 L 226 254 L 235 268 L 242 275 L 252 284 L 262 290 L 271 294 L 280 294 L 285 292 L 290 288 L 294 282 L 294 270 L 293 268 L 286 260 L 273 253 L 266 246 L 260 235 L 257 224 L 257 208 L 261 195 L 266 187 L 272 180 L 282 172 L 292 166 L 305 161 L 323 157 L 352 157 L 363 159 L 380 164 L 394 171 L 409 181 L 419 190 L 428 201 L 436 213 L 445 232 L 451 253 L 454 263 L 458 268 L 466 273 L 488 277 L 512 282 L 521 282 L 529 279 L 536 271 L 541 253 L 550 208 L 555 172 L 557 147 L 560 72 L 561 64 L 564 48 L 569 38 L 576 32 L 588 32 L 593 34 L 602 42 L 610 52 L 617 64 L 625 82 L 633 108 L 638 134 L 640 160 L 640 178 L 639 192 L 635 217 L 627 248 L 617 275 L 608 294 L 600 310 L 600 318 L 607 329 L 619 348 L 632 373 L 640 391 L 646 408 L 654 436 L 653 445 L 649 450 L 640 456 L 632 464 L 628 472 L 628 482 L 638 511 L 645 538 L 648 558 L 648 590 L 647 597 L 643 612 L 635 628 L 627 638 L 617 646 L 603 653 L 595 660 L 591 668 L 591 675 L 603 711 L 609 733 L 614 757 L 618 786 L 620 793 L 625 800 L 648 800 L 652 796 L 655 790 L 655 776 L 654 764 L 648 728 L 640 697 L 638 691 L 636 682 L 640 680 L 651 670 L 656 665 L 663 656 L 674 639 L 679 624 L 683 608 L 686 584 L 686 560 L 684 540 L 680 518 L 675 499 L 669 482 L 672 482 L 676 480 L 676 478 L 680 477 L 682 472 L 684 472 L 688 466 L 693 453 L 693 440 L 692 428 L 690 418 L 684 397 L 681 388 L 676 374 L 671 362 L 667 354 L 659 338 L 657 338 L 657 336 L 651 324 L 649 324 L 647 318 L 641 310 L 641 304 L 643 304 L 648 294 L 649 288 L 651 288 L 652 282 L 654 282 L 656 277 L 661 264 L 666 248 L 672 224 L 676 196 L 677 176 L 677 160 L 676 140 L 673 116 L 668 93 L 662 74 L 655 56 L 653 56 L 652 52 L 645 38 L 641 32 L 635 24 L 631 18 L 628 18 L 628 16 L 624 12 L 619 10 L 619 8 L 616 6 L 605 0 L 558 0 L 553 3 L 542 12 L 541 16 L 539 16 L 538 20 L 536 20 L 536 23 L 534 23 L 531 30 L 528 40 L 524 60 L 522 80 L 521 104 L 518 148 L 512 192 L 508 212 L 507 225 L 505 225 L 504 230 L 503 240 L 488 236 L 482 236 L 481 227 L 475 206 L 470 196 L 464 184 L 462 184 L 462 182 L 453 168 L 451 168 L 451 166 L 448 162 L 446 162 L 446 160 L 441 156 L 436 151 L 432 149 L 432 147 L 430 146 L 426 142 L 420 140 L 420 138 L 412 134 L 406 132 L 406 130 L 389 124 L 373 119 L 352 116 L 328 116 L 320 117 L 302 120 L 280 128 L 277 80 L 275 59 L 272 42 L 269 33 L 263 20 L 253 8 L 248 6 L 248 4 L 240 0 C 236.72597 -0.19605568 233.4986 -0.20470649 230.32031 -0.0390625 z "
       d="M 230.32031,-0.0390625 C 182.64593,2.4455974 146.22002,44.130171 135.42773,80.296875 123.44288,128.23627 128.23828,222.91797 128.23828,222.91797 l 34.98633,73.3125 -40.95508,72.87891 c 0,0 -8.48029,94.37868 15.23047,105.46679 22.62581,10.58074 -41.013485,13.64935 -4.5625,162.75195 10.71363,43.82408 41.29025,30.83488 31.25586,55.39649 -6.27172,52.32243 -27.03591,98.61055 -14.66211,105.37695 C 179.63639,807.06386 180,792 180,792 l 4,-26 5,-25 6,-23 7,-22 7,-20 v -8 l -2,-5 -7,-8 -14,-7 -9,-6 -10,-11 -7,-13 -6,-18 -2,-16 v -26 l 2,-14 6,-25 12,-37 v -8 l -6,-12 -6,-5 -10,-8 -4,-6 v -7 l 8,-28 7,-19 7,-15 8,-16 9,-16 10,-15 5,-10 v -7 l -2,-6 -8,-13 -8,-18 -8,-22 -7,-25 -5,-26 -2,-24 v -24 l 2,-21 3,-16 7,-26 6,-15 8,-16 8,-13 7,-7 9,-6 h 12 l 3,1 7,8 4,12 3,19 1,16 1,43 v 22 l -7,9 -7,11 -5,12 -4,17 v 26 l 2,10 6,16 9,14 7,7 10,9 10,6 9,4 h 9 l 5,-2 5,-4 4,-6 v -12 l -1,-2 -7,-8 -13,-7 -7,-7 -6,-11 -3,-11 v -16 l 4,-13 5,-8 6,-7 10,-8 10,-6 13,-5 18,-4 h 29 l 11,2 17,5 14,7 15,10 10,9 9,11 8,12 9,19 6,21 3,10 4,5 8,5 22,4 24,5 h 9 l 8,-3 7,-8 5,-18 9,-45 5,-36 2,-25 3,-75 1,-8 3,-16 5,-10 7,-6 h 12 l 5,2 9,8 8,10 7,12 8,18 8,26 5,26 2,26 v 18 l -1,14 -4,25 -8,31 -10,27 -9,19 -8,16 v 8 l 7,11 12,19 13,25 8,18 6,17 8,28 -1,9 -4,5 -9,6 -8,8 -4,8 v 10 l 10,29 7,27 3,20 v 32 l -1,7 -4,15 -8,16 -8,10 -10,8 -14,7 -8,7 -4,8 v 7 l 12,36 6,22 5,24 4,29 2,7 5,7 h 23 l 4,-4 3,-6 v -14 l -1,-12 -6,-36 -8,-31 -2,-6 -2,-9 4,-2 11,-10 5,-5 7,-9 11,-17 5,-15 4,-16 3,-24 v -24 l -2,-20 -4,-22 -5,-19 -6,-17 h 3 l 4,-2 v -2 l 4,-1 2,-5 h 2 l 4,-6 5,-13 v -13 l -1,-12 -2,-10 -6,-21 -3,-9 -5,-14 -5,-12 -4,-8 -8,-16 h -2 v -2 l -6,-12 h -2 l -2,-6 -6,-8 v -6 h 2 l 5,-10 1,-6 h 2 l 1,-6 h 2 l 2,-5 5,-13 5,-16 6,-24 4,-28 1,-20 v -16 l -1,-20 -3,-24 -5,-23 -6,-19 -7,-18 h -2 l -1,-4 -7,-14 -4,-6 -6,-8 -4,-6 h -3 v -2 l -4,-4 -5,-2 V 8 L 616,6 605,0 h -47 l -5,3 -11,9 -1,4 h -2 l -1,4 h -2 v 3 h -2 l -3,7 -3,10 -4,20 -2,20 -1,24 -3,44 -6,44 -4,20 -1,13 h -2 l -1,5 -1,10 -15,-4 h -6 l -1,-9 -6,-21 -5,-10 -6,-12 h -2 v -2 l -9,-14 h -2 v -2 l -3,-4 h -2 v -2 l -5,-4 -5,-5 -4,-2 v -2 l -2,-1 -4,-4 -6,-2 v -2 l -8,-4 -6,-2 v -2 l -17,-6 -16,-5 -21,-3 h -24 l -8,1 -18,3 -22,8 -3,-48 -2,-21 -3,-17 -3,-9 L 263,20 253,8 248,6 V 4 l -8,-4 c -3.27403,-0.19605568 -6.5014,-0.20470649 -9.67969,-0.0390625 z" />
  </g>
</svg>
