<svg x="0" y="0" version="1.1" xmlns="http://www.w3.org/2000/svg" xmlns:xlink="http://www.w3.org/1999/xlink" viewBox="0 0 512 512" width="96" height="96" style="fill: rgb(255, 255, 255);"><g fill="none" stroke="none" stroke-width="1" stroke-linecap="butt" stroke-linejoin="miter" stroke-miterlimit="10" stroke-dasharray="" stroke-dashoffset="0" font-family="sans-serif" font-weight="normal" font-size="12" text-anchor="start" mix-blend-mode="normal"><g><g><path d="M0,512l0,-512l512,0l0,512z" fill="none"/><path d="M102.4,512c-56.55395,0 -102.4,-45.84605 -102.4,-102.4l0,-307.2c0,-56.55395 45.84605,-102.4 102.4,-102.4l307.2,0c56.55395,0 102.4,45.84605 102.4,102.4l0,307.2c0,56.55395 -45.84605,102.4 -102.4,102.4z" fill="#4285f4"/><g id="translate" fill="#ffffff"><path d="M320.68545,339.38967l53.77464,0l-27.27699,-72.47887z M364.32864,222.48827l74.81691,199.51174l-33.51173,0l-18.70422,-49.87793l-78.71362,0l-18.70422,49.87793l-33.51173,0l74.81691,-199.51174z M270.80751,306.65728l-13.24882,34.29108l-51.43662,-51.43662l-83.38967,82.61032l-23.38028,-23.38028l84.94836,-83.38967c-20.78247,-22.86073 -37.40845,-48.05947 -49.87793,-75.59624l33.51173,0c10.91079,20.78247 23.64006,39.22692 38.1878,55.33333c23.89984,-26.49765 41.56495,-56.11267 52.99531,-88.84506l-186.26291,0l0,-33.51173l116.90141,0l0,-32.73239l32.73239,0l0,32.73239l116.90141,0l0,33.51173l-49.09859,0c-13.50861,41.56495 -34.03129,77.6745 -61.56807,108.32864l-0.77934,0.77934z"/></g></g></g></g></svg>