<?xml version="1.0" encoding="UTF-8"?>
<svg width="600" height="160" version="1.1" viewBox="0 0 158.75 42.333" xmlns="http://www.w3.org/2000/svg">
 <g>
  <path d="m144.45 7.469 5.7062-3.2741v7.1561l3.6482 0.04677 0.0468 4.3966h-3.6482l-0.0935 10.243c-0.13869 1.4955 0.96683 2.6346 3.695 1.2628l0.3274 4.1627c-3.7258 1.1816-6.5513 0.61393-7.8577-0.09355-1.3908-0.89145-1.799-2.2295-1.8241-3.7418l0.0468-11.693-2.3854-0.09354v-4.4901l2.4322 0.14032z"/>
  <path d="m133.97 17.478 5.0982-1.029c-1.0512-3.6316-3.4084-5.2698-6.8287-5.2853l-3.9756-0.09354c-9.0835 1.0379-8.5879 9.25-3.2741 11.553 5.2035 2.3546 9.2485 1.2443 9.027 3.9756-0.78983 2.3883-6.8987 2.5597-7.8577-1.3564l-5.6594 0.8419c3.3273 6.7706 5.2354 6.1409 11.88 6.1739 9.2809-0.36837 10.234-11.871 0.84191-12.862-14.581-2.2862-1.4986-7.2527 0.74838-1.9177z"/>
  <g transform="translate(55.815 -54.691)">
   <path d="m55.706 58.091h5.5191l0.04677 5.0514h-5.4723z"/>
   <path d="m55.706 65.855h5.6127l0.04677 20.627h-5.7062z"/>
  </g>
  <path d="m105.97 32.181 0.14032-20.627h-5.4724l-0.0935 12.301c-0.0992 3.0505-2.2279 4.3658-4.2095 4.4434-2.5464-0.11374-3.3845-1.5811-3.3208-3.3676l-0.18713-13.33h-5.5191l-1e-5 14.172c0.0956 5.519 4.2276 6.7853 8.4658 6.6416 2.4436-0.21178 3.5847-1.421 5.0046-2.8999l0.0468 2.666z"/>
  <path d="m70.946 10.844c-4.5898 0.09787-9.0592 4.7819-8.723 10.61-0.39252 9.5865 7.9614 13.764 14.616 7.6238v4.2561c-1.227 3.5667-6.5105 3.9489-7.7406 0.5612l-6.1273-0.84181c-0.67553 5.1363 4.066 7.3985 10.337 6.9691 5.3104-0.18726 8.1562-1.1176 8.8398-7.7174v-20.954l-5.3087-0.04702v2.5725c-1.6961-2.1738-3.8069-3.0769-5.8932-3.0324zm0.74724 4.6912c0.17252-0.0011 0.35191 0.0068 0.53898 0.02479 3.2403-0.13435 4.0752 2.2368 4.3496 5.1919 0.10529 4.5874-1.4566 6.4835-3.9284 6.5479-3.5022 0.26719-4.8047-2.2477-4.7708-6.5009 0.24263-3.109 1.2228-5.2462 3.8106-5.2638z"/>
  <path d="m39.492 11.304-0.14032 20.627h5.4723l0.09354-12.301c0.09924-3.0505 2.2279-4.3659 4.2095-4.4434 2.5464 0.11374 3.3845 1.5811 3.3208 3.3676l0.18709 13.33h5.5191l3e-6 -14.172c-0.09565-5.519-4.2276-6.7853-8.4658-6.6417-2.4437 0.21178-3.5847 1.421-5.0046 2.8999l-0.04677-2.666z"/>
  <g transform="translate(-27.252 -54.504)">
   <path d="m55.706 58.091h5.5191l0.04677 5.0514h-5.4723z"/>
   <path d="m55.706 65.855h5.6127l0.04677 20.627h-5.7062z"/>
  </g>
  <path d="m4.6465 3.7272h5.8465l0.09355 23.199 13.845 0.04677 0.14032 4.9578-19.785-0.04677z"/>
 </g>
</svg>
