<?xml version="1.0" encoding="UTF-8" standalone="no"?>
<!-- Generator: visioncortex VTracer 0.6.4 -->

<svg
   version="1.1"
   width="378"
   height="393"
   id="svg167741"
   sodipodi:docname="logo.svg"
   xml:space="preserve"
   inkscape:version="1.2.2 (b0a8486541, 2022-12-01)"
   xmlns:inkscape="http://www.inkscape.org/namespaces/inkscape"
   xmlns:sodipodi="http://sodipodi.sourceforge.net/DTD/sodipodi-0.dtd"
   xmlns="http://www.w3.org/2000/svg"
   xmlns:svg="http://www.w3.org/2000/svg"><defs
     id="defs167745" /><sodipodi:namedview
     id="namedview167743"
     pagecolor="#ffffff"
     bordercolor="#000000"
     borderopacity="0.25"
     inkscape:showpageshadow="2"
     inkscape:pageopacity="0.0"
     inkscape:pagecheckerboard="0"
     inkscape:deskcolor="#d1d1d1"
     showgrid="false"
     inkscape:zoom="1.6984957"
     inkscape:cx="91.257222"
     inkscape:cy="172.50559"
     inkscape:window-width="1920"
     inkscape:window-height="1118"
     inkscape:window-x="0"
     inkscape:window-y="0"
     inkscape:window-maximized="1"
     inkscape:current-layer="svg167741" /><g
     id="g180063"
     inkscape:label="Babylon"
     transform="matrix(1.1075618,0,0,1.032343,-20.81782,-4.2672847)"><path
       style="display:inline;opacity:1;fill:#333333;fill-opacity:1;stroke-width:8;stroke-linejoin:bevel;stroke-opacity:0.466387"
       d="m 158.37544,4.7100503 c 23.66185,4.9749299 36.61898,7.2325907 61.67222,12.2166927 7.24096,0.696086 5.95537,4.13746 8.38977,32.970352 6.60887,0.957947 9.27974,1.299177 15.30767,2.207836 5.84022,0.632342 7.20546,-2.823033 8.24259,11.333558 2.85138,16.372849 4.76988,32.373633 6.03475,47.542071 4.78275,-2.74684 8.31336,-4.03569 12.95264,-5.88756 4.32806,-2.7337 8.64744,-2.98822 10.00885,5.29881 4.05388,29.09092 6.79879,53.18035 9.56729,79.3349 8.31724,-3.48371 13.18013,-5.54142 16.92675,-7.35945 4.51655,-1.48013 10.20594,-3.29288 11.18636,6.32913 5.68916,44.0467 6.82468,64.47715 9.5673,89.41736 -0.55468,6.54433 -0.73022,6.60941 15.01328,3.01738 7.77522,-0.81964 7.78832,-0.85548 8.53697,6.32913 3.23273,29.80229 7.23112,51.12209 11.22208,89.04199 0.67971,5.50211 0.15279,9.92555 -6.68448,10.28537 -102.67397,-1.39213 -200.50902,-1.24065 -332.916418,-0.12193 -6.059394,-0.29024 -4.868177,-1.95103 -5.004428,-8.97853 3.042144,-46.69935 6.727076,-76.92934 10.376829,-129.96796 -0.0045,-5.31331 0.757619,-7.2919 6.32913,-7.58023 6.7341,0.7632 10.753661,1.41115 19.134579,2.50221 3.850204,0.81347 2.576547,-0.61186 2.943782,-5.15162 1.567407,-25.19853 3.025631,-45.45653 4.469878,-67.33899 0.414915,-3.62332 1.907051,-6.49257 7.526031,-6.03476 6.016199,0.42726 7.645128,0.4152 14.718907,1.47189 3.703584,0.61437 3.590224,0.0436 3.774877,-3.14147 2.047119,-24.86179 2.702964,-35.06648 4.026144,-56.32291 0.354047,-4.39916 1.572458,-7.273484 7.94821,-7.359454 3.861839,0.576048 6.091899,0.883552 12.363879,1.619084 4.24611,0.34247 4.04733,-1.535903 4.56286,-5.887567 1.90764,-17.22814 2.95698,-30.562163 5.15162,-45.92299 0.50029,-4.234835 1.0057,-8.147848 7.21226,-7.506642 4.48465,0.47225 9.2374,0.677557 14.05657,1.177513 4.64386,0.850689 3.88152,-0.325971 3.9005,-2.649404 0.58481,-9.380013 1.32731,-19.11257 2.20783,-27.671545 0.19612,-3.9527461 0.48756,-8.4022057 9.27292,-7.2122647 z"
       id="path168596"
       sodipodi:nodetypes="cccccccccccccccccccccccccccccccccccc"
       inkscape:label="bg" /><path
       d="m 38,251 -2,21 -8,96 v 9 h 32 l 0.558433,-72.58876 c 4.79343,-21.52722 33.69964,-20.04906 40.471887,0.47189 L 101,377 h 22 l 0.26405,-66.49779 c 7.75742,-24.06915 35.94324,-17.18358 39.4719,1.64498 L 163,377 h 21 l 0.70562,-59.47189 c 6.94309,-24.27086 36.53205,-17.34513 39.03033,0.61908 L 224,377 h 21 l 1,-53 c 4.61367,-25.32344 38.99863,-19.60183 38,1 l 1,52 h 67 l -1,-12 -6,-54 -2,-18 -2,-1 -14,2 -15,-1 L 182,273 40,251 Z"
       id="path168074"
       sodipodi:nodetypes="cccccccccccccccccccccccccccccc"
       style="fill:#ffe680;fill-opacity:1" /><path
       d="m 72,175 -2,21 -2.687765,49.93671 c 8.215181,1.38849 16.498694,2.09619 21.895922,2.58368 l 0.375529,-33.9367 C 97.746296,194.64775 119.5717,202.23622 120,218 l 0.52039,35.93671 C 127.96426,254.83501 131.21203,255.34175 138,256 l 0.47961,-35 c 5.53,-17.4938 25.7913,-15.24632 30.35302,0.52039 L 169,261 l 17,2 1,-35 c 5.36418,-16.16393 25.28758,-11.50855 28,1 l 1,39 c 6.68682,0.96347 10.77348,1.89592 17.31224,2.41631 L 234,235 c 4.20379,-17.92876 27.16901,-12.83587 28.62447,1.31224 l 0.27145,38.89592 16.20816,2.06329 -0.0408,-32.37553 c 7.57325,-13.10829 19.31046,-8.67757 21.66526,0.52039 L 302,281 c 6.38358,0.6817 9.21116,1.35605 15,2 -2.64464,-32.91201 -5.18062,-60.72663 -7.96968,-89.03032 l -14.56286,6.23816 -6.90903,2.96967 L 279,202 198,192 114,181 Z"
       id="path168018"
       sodipodi:nodetypes="ccccccccccccccccccccccccccccccc"
       style="fill:#fff6d5;fill-opacity:1" /><path
       d="m 102,110 -3,36 -1.147189,22.91993 C 102.55863,169.55714 109.43609,170.4057 115,171 l 1.70562,-29.29438 c 5.34038,-12.90341 21.11993,-12.30853 25.03033,1.73595 L 141,175 c 7.03857,0.89 9.98459,0.98252 18.88313,1.85281 C 160.20239,165.69444 160.57947,157.67215 161,148 c 2.55397,-14.84948 21.51941,-12.7709 24.73595,0.85281 L 185,180 l 1,1 16,1 1.41124,-29.26405 c 4.03952,-13.81728 22.40232,-12.68148 25.17752,1.90902 L 228,186 245.14719,187.41124 246,159 c 2.66339,-11.9538 18.60207,-11.31509 21.88313,-0.29438 l -0.17751,32 12.03033,0.85281 c -3.14061,-25.4272 -6.21896,-50.66373 -9.17752,-75.61908 C 266.14546,118.49663 263.03089,120.27893 257,123 l -18,-1 -103,-9 z"
       id="path167980"
       sodipodi:nodetypes="cccccccccccccccccccccccccc"
       style="fill:#ffb380;fill-opacity:1" /><path
       d="m 132.26405,51.852811 c -2.82574,18.067234 -4.2034,33.428802 -6.19046,50.073599 5.30928,0.71412 9.89189,1.11686 17.14719,1.55843 l 0.26406,-26.29438 c 4.67747,-10.15281 14.71439,-6.922067 17.47189,-0.04327 L 161,105 c 4.94354,1.2495 9.95001,1 15,1 l 0.70562,-23.441567 c 4.32884,-10.437956 16.49647,-7.103777 18.03033,0.147189 L 194,108 l 16,1 1.33765,-22.264055 c 4.67126,-7.769085 15.3312,-4.795531 16.3247,0.779217 L 228,111 l 19.10392,1.33765 C 245.88014,92.466839 246.09548,61.156355 240.48484,62.19046 L 226,61 174,56 Z"
       id="path167926"
       sodipodi:nodetypes="ccccccccccccccccccc"
       style="fill:#ff9955;fill-opacity:1" /><path
       d="m 159,16 -1.79184,28.62447 C 175.64924,46.877474 192.308,48.273951 210,50 h 7 C 217.0361,41.792846 215.87005,34.050929 214.62447,25.791843 198.82962,23.094138 177.40033,18.185646 159,16 Z"
       id="path167900"
       sodipodi:nodetypes="cccccc"
       style="fill:#ffb380;fill-opacity:1" /></g></svg>
